<?xml version="1.0" encoding="utf-8"?>
<!-- Generator: Adobe Illustrator 24.2.0, SVG Export Plug-In . SVG Version: 6.00 Build 0)  -->
<svg version="1.1" id="Layer_1" xmlns="http://www.w3.org/2000/svg" xmlns:xlink="http://www.w3.org/1999/xlink" x="0px" y="0px"
	 viewBox="0 0 132.6 132.6" style="enable-background:new 0 0 132.6 132.6;" xml:space="preserve">
<style type="text/css">
	.st0{fill:#43549A;}
	.st1{fill:#35428B;}
	.st2{fill:#D5E4EC;}
	.st3{fill:#9B613F;}
	.st4{fill:#FDC6A2;}
	.st5{fill:#D98A77;}
	.st6{fill:#F8B894;}
	.st7{fill:#723F28;}
	.st8{fill:#F1AE8B;}
	.st9{fill:#DAE5F2;}
	.st10{fill:#C4D7E9;}
	.st11{fill:none;stroke:#EEC2B8;stroke-linecap:round;stroke-linejoin:round;}
	.st12{fill:#EEC2B8;}
	.st13{opacity:0.52;fill:none;stroke:#723F28;stroke-linecap:round;stroke-linejoin:round;enable-background:new    ;}
	.st14{opacity:0.2;fill:#E89E85;enable-background:new    ;}
	.st15{fill:#FFFFFF;}
	.st16{opacity:0.49;fill:none;stroke:#FFFFFF;stroke-linecap:round;stroke-linejoin:round;enable-background:new    ;}
	.st17{opacity:0.5;fill:#FFFFFF;enable-background:new    ;}
	.st18{fill:none;stroke:#FFFFFF;stroke-linecap:round;stroke-linejoin:round;}
	.st19{fill:#E99F86;}
	.st20{fill:#714630;}
	.st21{opacity:0.77;fill:none;stroke:#FFFFFF;stroke-linecap:round;stroke-linejoin:round;enable-background:new    ;}
	.st22{fill:#D27E72;}
	.st23{fill:#E48C7C;}
	.st24{opacity:0.72;fill:#FFFFFF;enable-background:new    ;}
	.st25{opacity:0.42;fill:#FFFFFF;enable-background:new    ;}
	.st26{opacity:0.2;fill:#FFF4F9;enable-background:new    ;}
	.st27{opacity:0.49;fill:#FFF4F9;enable-background:new    ;}
</style>
<g>
	<g id="Layer_2_1_">
		<g id="Layer_1-2">
			<path class="st0" d="M106,136.7L106,136.7c-0.3,0.2-0.7,0.3-1,0.4l-0.2,0.1c-6.8,1.6-35.1,3.2-40.4,3.2h-0.2
				c-4.3,0-22.8-1-33.8-2.2l-1.1-0.1c-1.5-0.2-2.8-0.4-3.9-0.6c-0.6-0.1-1.2-0.2-1.6-0.3l-0.3-0.1l0,0c-1-0.3-1.5-0.5-1.2-0.8l0,0
				c0.1-0.1,0.2-0.1,0.3-0.1c0.7-0.3,1.4-0.7,2.1-1.2l0,0c0.5-0.3,0.9-0.7,1.3-1.1l0.1-0.1c0.3-0.3,0.6-0.6,0.8-0.9l0.1-0.1l0,0
				c1.5-2.2,2.5-4.6,3-7.2c0.6-2.2,1-4.5,1.8-6.6c0.5-1.5,1.2-2.9,2.2-4.2c0.3-0.4,0.6-0.8,0.9-1.1c0.2-0.2,0.4-0.4,0.6-0.6
				c1.4-1.3,2.9-2.4,4.6-3.2c0.6-0.3,1.2-0.6,1.9-0.9c3.2-1.4,6.7-2.3,10.1-2.8c1-0.1,1.9-0.3,2.9-0.4c3-0.4,6.1-0.6,9.2-0.6h0.2
				c4.1,0.1,8.1,0.4,12.1,1c4.2,0.5,8.2,1.8,12,3.7l0,0c0.4,0.2,0.8,0.4,1.2,0.7c0.6,0.3,1.2,0.7,1.7,1.2c0.6,0.4,1.1,0.9,1.7,1.4
				c1.8,1.8,3.2,4,3.9,6.5c0.6,1.8,1,3.6,1.4,5.4c0.5,2.7,1.6,5.4,3.1,7.7c0.3,0.4,0.6,0.7,0.9,1.1c0.4,0.5,0.9,0.9,1.4,1.2
				c0.3,0.2,0.7,0.4,1,0.6c0.3,0.2,0.7,0.4,1.1,0.5l0.2,0.1C106.3,136.3,106.3,136.5,106,136.7z"/>
			<path class="st1" d="M104.9,137c-4.4,0.8-8.8,1.4-13.3,1.7c2.3-12-0.7-22.8-3.1-29c1.6,0.9,3.2,1.9,4.6,3.2
				c6.4,6,3.7,16.8,10.7,21.9c0.6,0.5,1.3,0.9,2.1,1.2C106.6,136.4,106.2,136.7,104.9,137z"/>
			<path class="st1" d="M23.7,136.9c4.4,0.8,8.9,1.4,13.3,1.7c-2.3-12,0.7-22.8,3.1-29c-1.6,0.9-3.2,1.9-4.6,3.2
				c-6.4,6-3.7,16.8-10.7,21.9c-0.6,0.5-1.3,0.9-2.1,1.3C22,136.3,22.4,136.6,23.7,136.9z"/>
			<circle class="st1" cx="39" cy="127.7" r="1.4"/>
			<circle class="st1" cx="39.7" cy="125" r="0.6"/>
			<circle class="st1" cx="41.7" cy="127.5" r="0.6"/>
			<circle class="st1" cx="42.3" cy="125" r="1"/>
			<circle class="st1" cx="41.3" cy="130.3" r="1"/>
			<path class="st2" d="M22.4,136.2c0.9-0.4,1.8-0.9,2.5-1.5c-0.4,0.9-0.9,1.8-1.4,2.6C22.1,136.9,21.6,136.5,22.4,136.2z"/>
			<path class="st2" d="M104.8,137.1c-0.5-0.7-0.9-1.4-1.2-2.1c0.6,0.5,1.3,0.9,2.1,1.2C106.5,136.5,106.1,136.8,104.8,137.1z"/>
			<path class="st3" d="M44.3,54.2c-12.1-12.4-8.4-30.4-8.4-30.4l7.3,3.8c0,0-5.6-14.6,5.5-23.5c0,0-2.3,6.6,2.8,10.1
				c0,0,2-12.5,13.2-14.2c0,0-1.4,7.9,1.8,10.6c0,0,14.6-13.8,42.8-4.1c0,0-4.8,6.2-9.1,9.1c5.2-0.1,10.4,0.6,15.3,2
				c-11.5,2.5-23.6,8.5-29.1,19.2c-1.9,3.4-3.1,7.1-3.7,10.9"/>
			<path class="st4" d="M70.7,104.7c0.2,0.7,0,1.5-0.5,2c-1.4,1.7-3.5,2.7-5.7,2.9h-0.1c-2.2-0.2-4.2-1.2-5.7-2.9
				c-0.5-0.5-0.7-1.3-0.5-2c1.3-5.3,0.8-16.4,0.8-16.4l5.3-1.8h0.1l5.3,1.8C69.8,88.3,69.3,99.4,70.7,104.7z"/>
			<path class="st3" d="M91,23.6c0,1.6,3.8,18.6-6.9,26.8V23.6C84.1,23.6,91,23.5,91,23.6z"/>
			<circle class="st4" cx="44" cy="56.6" r="7.5"/>
			<circle class="st4" cx="84.2" cy="56.4" r="7.5"/>
			<circle class="st5" cx="43.7" cy="56.9" r="3.5"/>
			<circle class="st5" cx="85.4" cy="56.3" r="3.6"/>
			<path class="st4" d="M85.9,83.3C81,88.4,71.1,98.8,64.4,98.8c0,0,0-0.1-0.1-0.4v0.4c-6.8,0-16.6-10.4-21.5-15.5
				c-3.8-3.8-1.9-8.8-0.7-13.3c0.9-3.1,1.5-6.4,1.7-9.7c0.3-6.2-0.3-12.3,0.5-18.6c1.6-12.8,17.7-12.4,20-12.2
				c2.3-0.1,18.4-0.6,20,12.2c1.2,9.8-0.7,19.7,2.4,29.2C88.1,75.2,89.4,79.7,85.9,83.3z"/>
			<path class="st6" d="M83.9,39.7c-5.1-7.2-17.6-6.8-19.6-6.7c-2-0.1-14.4-0.5-19.6,6.7c3-10.6,17.5-10.2,19.6-10.1
				C66.4,29.5,80.9,29,83.9,39.7z"/>
			<path class="st7" d="M84.8,45.9v1c0-1.7-0.1-3.4-0.4-5.1c-1.6-12.8-17.7-12.4-20-12.2c-2.3-0.1-18.4-0.6-20,12.2
				C44.1,43.9,44,45.9,44,48c-0.1-3.5,0-6.9,0.4-10.3c0.6-4.9,3.6-8.2,7.7-10.1c1.5-2.6,3.5-4.8,6-6.5c-0.9,1.4-1.4,3.1-1.3,4.8
				c1.2-2.4,3.1-4.3,5.5-5.6l-0.7,2.1c-0.3,1-0.6,2-0.7,3c2.5-0.2,5-0.2,7.4,0c2.7,0.2,5.3,0.8,7.8,1.8c4.5,1.7,7.7,5.7,8.3,10.4
				C84.7,40.4,84.8,43.1,84.8,45.9z"/>
			<path class="st8" d="M70,99.8c-5.2,0.5-8.7-0.6-10.9-1.8c0-0.2,0-0.5,0-0.7c1.6,0.9,3.3,1.4,5.1,1.5v-0.4c0,0.2,0.1,0.4,0.1,0.4
				c1.5-0.1,3-0.4,4.3-1.1c0.4-0.2,0.8-0.4,1.2-0.6c0,0.3,0,0.5,0,0.8C69.9,98.6,70,99.2,70,99.8z"/>
			<path class="st9" d="M107.7,139.4v48.4H20.6v-48.4c0-2.6,1.5-5,3.8-6.1c0.8-0.4,1.7-0.6,2.6-0.7l0,0c0.1,0,0.2,0,0.4,0h73.4
				c0.2,0,0.4,0,0.6,0l0,0c0.9,0.1,1.7,0.3,2.4,0.7C106.2,134.4,107.7,136.8,107.7,139.4z"/>
			<path class="st10" d="M107.7,167.8v22.6H20.6v-18.6C38.9,177.2,72.8,183,107.7,167.8z"/>
			<circle class="st7" cx="70.4" cy="22.4" r="1.4"/>
			<circle class="st7" cx="74.2" cy="21.1" r="0.8"/>
			<circle class="st7" cx="71.8" cy="19.9" r="0.8"/>
			<path class="st11" d="M68.8,9.2c0,0,9.2-7.7,27.5-5.6"/>
			<line class="st11" x1="100.3" y1="4.3" x2="103.8" y2="5"/>
			<path class="st11" d="M52.2,11.8c1.1-4.3,3.9-8,7.8-10.1"/>
			<path class="st11" d="M41.7,18.2C41.8,14.6,43,11,45,8"/>
			<circle class="st12" cx="44.8" cy="10.8" r="1.4"/>
			<circle class="st12" cx="45.2" cy="13.5" r="0.5"/>
			<circle class="st12" cx="53.7" cy="11" r="0.9"/>
			<circle class="st12" cx="91.9" cy="4.6" r="1.3"/>
			<circle class="st12" cx="70.7" cy="8.8" r="0.8"/>
			<circle class="st12" cx="101.8" cy="6.6" r="1"/>
			<circle class="st12" cx="70.1" cy="11.1" r="0.6"/>
			<circle class="st12" cx="74.2" cy="9.5" r="1.3"/>
			<path class="st13" d="M75.8,25.2c3.5,0.9,6.5,3.2,8.3,6.4"/>
			<path class="st14" d="M88.1,78.5c-0.1,1.8-0.9,3.6-2.2,4.9C81,88.5,71.1,98.9,64.4,98.9c0,0,0-0.1-0.1-0.4v0.4
				c-6.8,0-16.6-10.4-21.5-15.5c-1.3-1.3-2.1-3.1-2.2-4.9C53.7,91.4,74.9,91.4,88.1,78.5L88.1,78.5z"/>
			<path class="st15" d="M73.8,73.3c1.2,0,2.1,1,2.1,2.1c0,0.2,0,0.3-0.1,0.5c-1.3,5.9-7.2,9.6-13.2,8.3c-4.1-0.9-7.3-4.2-8.3-8.3
				c-0.3-1.1,0.4-2.3,1.6-2.6c0.2,0,0.3-0.1,0.5-0.1L73.8,73.3L73.8,73.3z"/>
			<path class="st16" d="M35.8,27.7c0,0-0.8,9.9,3.2,17.9"/>
			<circle class="st17" cx="38.6" cy="26.6" r="0.7"/>
			<circle class="st17" cx="36.7" cy="25.7" r="0.4"/>
			<circle class="st15" cx="37.7" cy="28.6" r="0.9"/>
			<path class="st18" d="M57.5,6.6c0.9-1,1.9-1.9,3-2.6"/>
			<circle class="st15" cx="47.2" cy="41.3" r="1.6"/>
			<circle class="st15" cx="45.7" cy="45.6" r="0.6"/>
			<circle class="st15" cx="47.9" cy="44.8" r="0.5"/>
			<path class="st3" d="M60.6,48.8c-0.2,0.7-1,1.1-1.7,0.9l0,0h-0.1c-5-2-7.8,0.5-7.9,0.6c-0.3,0.2-0.6,0.4-0.9,0.4h-0.1
				c-0.8,0-1.3-0.7-1.3-1.4l0,0c0-0.3,0.2-0.7,0.4-0.9c0.2-0.2,4.2-3.8,10.8-1.1C60.4,47.3,60.8,48.1,60.6,48.8z"/>
			<path class="st3" d="M68.6,48.8c0.2,0.7,1,1.1,1.7,0.9l0,0h0.1c5-2,7.8,0.5,7.9,0.6c0.3,0.2,0.6,0.4,0.9,0.4h0.1
				c0.8,0,1.3-0.7,1.3-1.4l0,0c0-0.4-0.2-0.7-0.4-0.9s-4.1-3.8-10.8-1.1C68.8,47.3,68.4,48.1,68.6,48.8z"/>
			<path class="st19" d="M64.6,59.1L64.6,59.1c1.1,0,2,0.9,2,2V69c0,1.1-0.9,2-2,2l0,0c-1.1,0-2-0.9-2-2v-7.8
				C62.6,60,63.5,59.1,64.6,59.1z"/>
			<ellipse class="st20" cx="55.2" cy="55.3" rx="2.7" ry="3.4"/>
			<ellipse class="st20" cx="73.4" cy="55.3" rx="2.7" ry="3.4"/>
			<path class="st21" d="M44.3,49.5c0.2,4.6,0.1,9.2-0.2,13.8"/>
			<path class="st22" d="M73.1,192.6h30.1c0.6,0,1,0.5,1,1l0,0c0,0.6-0.5,1-1,1H73.1c-0.6,0-1-0.5-1-1l0,0
				C72,193.1,72.5,192.6,73.1,192.6z"/>
			<path class="st22" d="M108,192.6h4.1c0.6,0,1,0.5,1,1l0,0c0,0.6-0.5,1-1,1H108c-0.6,0-1-0.5-1-1l0,0
				C106.9,193.1,107.4,192.6,108,192.6z"/>
			<circle class="st10" cx="89.7" cy="171.3" r="1.6"/>
			<circle class="st10" cx="81.9" cy="171.3" r="2.6"/>
			<circle class="st10" cx="87.1" cy="167.4" r="0.8"/>
			<circle class="st10" cx="87" cy="174.8" r="1.9"/>
			<circle class="st10" cx="93.4" cy="170" r="0.9"/>
			<circle class="st10" cx="94.7" cy="165.2" r="2.2"/>
			<path class="st15" d="M46,134.6H28.3v-2H48C48,133.7,47.1,134.6,46,134.6z"/>
			<path class="st15" d="M53.9,134.6h-1.6c-1.1,0-2-0.9-2-2h5.6C55.9,133.7,55,134.6,53.9,134.6z"/>
			<circle class="st23" cx="18.4" cy="191.4" r="1.5"/>
			<circle class="st23" cx="22.6" cy="189.7" r="0.5"/>
			<path class="st23" d="M15,189.7"/>
			<circle class="st23" cx="15.6" cy="191.9" r="0.6"/>
			<circle class="st23" cx="22.1" cy="192.7" r="0.8"/>
			<circle class="st23" cx="20.3" cy="189.5" r="0.5"/>
			<circle class="st15" cx="28.4" cy="134.9" r="2.4"/>
			<circle class="st24" cx="29.8" cy="138.5" r="0.7"/>
			<circle class="st25" cx="28.5" cy="141.3" r="1.2"/>
			<circle class="st15" cx="24.7" cy="137.1" r="0.8"/>
			<circle class="st15" cx="27.1" cy="138.6" r="0.4"/>
			<path class="st26" d="M54.6,107.6L54.6,107.6c0,0.2,0.1,0.4,0.1,0.7c0,0.7-0.5,1.3-1.2,1.4c-0.7,0-1.3-0.5-1.4-1.2
				c0-0.2,0-0.3,0.1-0.5c-3.1,0.5-6.1,1.4-9.1,2.5c-0.1,0-0.2,0.1-0.3,0.1c-0.6,0-1-0.5-1-1c0-0.2,0.1-0.4,0.2-0.6
				c3.2-1.4,6.7-2.3,10.1-2.8c1-0.1,1.9-0.3,2.9-0.4c0.3,0.2,0.5,0.4,0.5,0.8C55.5,107,55.2,107.5,54.6,107.6
				C54.6,107.5,54.6,107.5,54.6,107.6z"/>
			<circle class="st27" cx="50.2" cy="112.5" r="0.7"/>
			<circle class="st27" cx="53.5" cy="114.3" r="0.6"/>
			<circle class="st27" cx="55.1" cy="112.2" r="1.1"/>
			<circle class="st27" cx="52.4" cy="111.4" r="0.7"/>
			<circle class="st27" cx="57.4" cy="109.8" r="0.9"/>
			<circle class="st15" cx="63.7" cy="161.6" r="10.9"/>
		</g>
	</g>
</g>
</svg>
